{
  "accessors": [
    {
      "bufferView": 0,
      "componentType": 5126,
      "count": 90446,
      "max": [
        0.289499998092651,
        0.289624989032745,
        0.276174992322922
      ],
      "min": [
        -0.289507985115051,
        -0.289563000202179,
        -0.276733994483948
      ],
      "type": "VEC3"
    },
    {
      "bufferView": 1,
      "componentType": 5126,
      "count": 90446,
      "type": "VEC3"
    },
    {
      "bufferView": 2,
      "componentType": 5126,
      "count": 90446,
      "type": "VEC2"
    },
    {
      "bufferView": 3,
      "componentType": 5125,
      "count": 450000,
      "type": "SCALAR"
    }
  ],
  "asset": {
    "generator": "MeshSmith mesh conversion tool",
    "version": "2.0"
  },
  "bufferViews": [
    {
      "buffer": 0,
      "byteLength": 1085352,
      "target": 34962
    },
    {
      "buffer": 0,
      "byteLength": 1085352,
      "byteOffset": 1085352,
      "target": 34962
    },
    {
      "buffer": 0,
      "byteLength": 723568,
      "byteOffset": 2170704,
      "target": 34962
    },
    {
      "buffer": 0,
      "byteLength": 1800000,
      "byteOffset": 2894272,
      "target": 34963
    }
  ],
  "buffers": [
    {
      "byteLength": 4694272,
      "uri": "Lycaste_virginalis-150k-4096.bin"
    }
  ],
  "images": [
    {
      "uri": "Lycaste_virginalis-150k-4096-diffuse.jpg"
    },
    {
      "uri": "Lycaste_virginalis-150k-4096-occlusion.jpg"
    },
    {
      "uri": "Lycaste_virginalis-150k-4096-normals.jpg"
    }
  ],
  "materials": [
    {
      "name": "default",
      "normalTexture": {
        "index": 2
      },
      "occlusionTexture": {
        "index": 1
      },
      "pbrMetallicRoughness": {
        "baseColorTexture": {
          "index": 0
        },
        "metallicFactor": 0.100000001490116,
        "roughnessFactor": 0.800000011920929
      }
    }
  ],
  "meshes": [
    {
      "primitives": [
        {
          "attributes": {
            "NORMAL": 1,
            "POSITION": 0,
            "TEXCOORD_0": 2
          },
          "indices": 3,
          "material": 0,
          "mode": 4
        }
      ]
    }
  ],
  "nodes": [
    {
      "mesh": 0
    }
  ],
  "scene": 0,
  "scenes": [
    {
      "nodes": [
        0
      ]
    }
  ],
  "textures": [
    {
      "source": 0
    },
    {
      "source": 1
    },
    {
      "source": 2
    }
  ]
}