{
  "accessors": [
    {
      "bufferView": 0,
      "componentType": 5126,
      "count": 77625,
      "max": [
        0.063801996409893,
        0.0512089990079403,
        0.0214939992874861
      ],
      "min": [
        -0.0639230012893677,
        -0.0516740009188652,
        -0.00486900005489588
      ],
      "type": "VEC3"
    },
    {
      "bufferView": 1,
      "componentType": 5126,
      "count": 77625,
      "type": "VEC3"
    },
    {
      "bufferView": 2,
      "componentType": 5126,
      "count": 77625,
      "type": "VEC2"
    },
    {
      "bufferView": 3,
      "componentType": 5125,
      "count": 450000,
      "type": "SCALAR"
    }
  ],
  "asset": {
    "generator": "MeshSmith mesh conversion tool",
    "version": "2.0"
  },
  "bufferViews": [
    {
      "buffer": 0,
      "byteLength": 931500,
      "target": 34962
    },
    {
      "buffer": 0,
      "byteLength": 931500,
      "byteOffset": 931500,
      "target": 34962
    },
    {
      "buffer": 0,
      "byteLength": 621000,
      "byteOffset": 1863000,
      "target": 34962
    },
    {
      "buffer": 0,
      "byteLength": 1800000,
      "byteOffset": 2484000,
      "target": 34963
    }
  ],
  "buffers": [
    {
      "byteLength": 4284000,
      "uri": "Unio_hainesianus-150k-4096.bin"
    }
  ],
  "images": [
    {
      "uri": "Unio_hainesianus-150k-4096-diffuse.jpg"
    },
    {
      "uri": "Unio_hainesianus-150k-4096-occlusion.jpg"
    },
    {
      "uri": "Unio_hainesianus-150k-4096-normals.jpg"
    }
  ],
  "materials": [
    {
      "name": "default",
      "normalTexture": {
        "index": 2
      },
      "occlusionTexture": {
        "index": 1
      },
      "pbrMetallicRoughness": {
        "baseColorTexture": {
          "index": 0
        },
        "metallicFactor": 0.100000001490116,
        "roughnessFactor": 0.800000011920929
      }
    }
  ],
  "meshes": [
    {
      "primitives": [
        {
          "attributes": {
            "NORMAL": 1,
            "POSITION": 0,
            "TEXCOORD_0": 2
          },
          "indices": 3,
          "material": 0,
          "mode": 4
        }
      ]
    }
  ],
  "nodes": [
    {
      "mesh": 0
    }
  ],
  "scene": 0,
  "scenes": [
    {
      "nodes": [
        0
      ]
    }
  ],
  "textures": [
    {
      "source": 0
    },
    {
      "source": 1
    },
    {
      "source": 2
    }
  ]
}